<?xml version="1.0" encoding="UTF-8"?>
<svg width="46px" height="46px" viewBox="0 0 46 46" version="1.1" xmlns="http://www.w3.org/2000/svg" xmlns:xlink="http://www.w3.org/1999/xlink">
    <!-- Generator: Sketch 63 (92445) - https://sketch.com -->
    <title>progress/checkpoint/active</title>
    <desc>Created with Sketch.</desc>
    <g id="Flow" stroke="none" stroke-width="1" fill="none" fill-rule="evenodd">
        <g id="00_assets" transform="translate(-532.000000, -146.000000)">
            <g id="progress/checkpoint/active" transform="translate(532.000000, 146.000000)">
                <g id="check">
                    <circle id="outer_oval" fill="#FFFFFF" cx="23" cy="23" r="23"></circle>
                    <circle id="inner_oval" fill="#E83056" cx="23" cy="23" r="16"></circle>
                    <g id="Element/Icon/progress" transform="translate(15.000000, 15.000000)" fill="#FFFFFF">
                        <path d="M3.06910122,2.10272536 L3.18110035,2.11855071 L6.22016285,2.74220793 C6.60070468,2.82030032 6.88363157,3.13186802 6.93192785,3.50892255 L6.9392408,3.62383552 L6.9392408,6.60918709 C6.9392408,7.10624336 6.53629707,7.50918709 6.0392408,7.50918709 C5.58041962,7.50918709 5.20178902,7.16585042 5.14625308,6.72208117 L5.1392408,6.60918709 L5.13838759,5.27166004 C4.35890814,6.0306647 3.9,7.07992973 3.9,8.2084229 C3.9,10.4727904 5.73563253,12.3084229 8,12.3084229 C8.49705627,12.3084229 8.9,12.7113666 8.9,13.2084229 C8.9,13.7054792 8.49705627,14.1084229 8,14.1084229 C4.74151998,14.1084229 2.1,11.4669029 2.1,8.2084229 C2.1,6.63297499 2.72288937,5.16321431 3.78455719,4.07982414 L2.81925625,3.88180589 C2.36980135,3.78957159 2.06791911,3.3771297 2.10272536,2.93125538 L2.11855071,2.81925625 C2.210785,2.36980135 2.62322689,2.06791911 3.06910122,2.10272536 Z M9,1.1 C12.25848,1.1 14.9,3.74151998 14.9,7 C14.9,8.58106489 14.2726611,10.0556876 13.2040705,11.1401719 L14.1809221,11.3395638 C14.6303769,11.4317981 14.9322592,11.84424 14.8974529,12.2901143 L14.8816276,12.4021135 C14.7893933,12.8515684 14.3769514,13.1534506 13.9310771,13.1186443 L13.8190779,13.102819 L10.7800154,12.4791618 C10.3994736,12.4010694 10.1165467,12.0895017 10.0682504,11.7124472 L10.0609375,11.5975342 L10.0609375,8.61218262 C10.0609375,8.11512634 10.4638812,7.71218262 10.9609375,7.71218262 C11.4197587,7.71218262 11.7983893,8.05551928 11.8539252,8.49928853 L11.8609375,8.61218262 L11.8606146,9.93773412 C12.6407002,9.17865346 13.1,8.12897461 13.1,7 C13.1,4.73563253 11.2643675,2.9 9,2.9 C8.50294373,2.9 8.1,2.49705627 8.1,2 C8.1,1.50294373 8.50294373,1.1 9,1.1 Z" id="Combined-Shape"></path>
                    </g>
                </g>
            </g>
        </g>
    </g>
</svg>