<svg id="Element_Icon_home" xmlns="http://www.w3.org/2000/svg" width="16" height="16" viewBox="0 0 16 16">
  <g id="Group">
    <path id="Shape" d="M13.966,15H2.034a.554.554,0,0,1-.548-.559V7.123l-.577.516a.54.54,0,0,1-.773-.052A.567.567,0,0,1,.187,6.8L7.639.139a.54.54,0,0,1,.722,0L15.813,6.8a.567.567,0,0,1,.051.788.54.54,0,0,1-.773.052l-.577-.516v7.322A.554.554,0,0,1,13.966,15ZM7,10.329v3.33H9v-3.33H7Zm-.673-1.3H9.673a.5.5,0,0,1,.506.494v4.07H13V6.368L8,2.087,3,6.372v7.222H5.821V9.524A.5.5,0,0,1,6.327,9.03Z" transform="translate(0 0)" fill="#0da36a"/>
  </g>
</svg>
