<?xml version="1.0" encoding="UTF-8"?>
<svg width="143px" height="160px" viewBox="0 0 143 160" version="1.1" xmlns="http://www.w3.org/2000/svg" xmlns:xlink="http://www.w3.org/1999/xlink">
    <!-- Generator: Sketch 63 (92445) - https://sketch.com -->
    <title>cgi/issue</title>
    <desc>Created with Sketch.</desc>
    <g id="Flow" stroke="none" stroke-width="1" fill="none" fill-rule="evenodd" opacity="0.75">
        <g id="00_assets" transform="translate(-83.000000, -564.000000)">
            <g id="cgi/issue" transform="translate(83.000000, 564.000000)">
                <g>
                    <polygon id="Path-4" fill="#86DBCA" points="110.098828 49.9563547 136.754239 49.9563547 140.711511 43.0923861 140.711511 14.5076816 129.054358 4.46927374 116.184009 6.24527335 110.098828 16.8622381"></polygon>
                    <polygon id="Path-5" fill="#E1FFF4" points="19.9644897 139.892903 19.9644897 20.0523743 110.098828 20.0523743 110.098828 118.034447 103.406436 126.133454 84.7805664 139.892903"></polygon>
                    <polygon id="Path-3" fill="#FFEDDC" points="81.7608061 155.106494 74.6216608 136.770267 74.6216608 109.944134 81.7608061 104.919982 87.8179199 104.919982 95.6451538 126.133454 104.971985 126.133454 110.035986 115.427723 110.035986 60.5791515 124.88961 74.3187529 132.191211 91.8055183 132.191211 136.770267 124.88961 155.106494"></polygon>
                    <rect id="Rectangle" fill="#FFBEBE" x="19.6625" y="19.6648045" width="19.6625" height="19.6648045"></rect>
                    <g id="list" fill="#63B294" fill-rule="nonzero">
                        <path d="M124.88961,-8.87506723e-15 L18.1091703,-8.87506723e-15 C8.12400204,-8.87506723e-15 0,8.12495418 0,18.1112927 L0,133.64763 C0,138.813398 4.20164942,143.01554 9.36681223,143.01554 L50.372228,143.01554 C52.0967949,143.01554 53.4944988,141.617672 53.4944988,139.892903 C53.4944988,138.168134 52.0967949,136.770267 50.372228,136.770267 L9.36681223,136.770267 C7.64468477,136.770267 6.24454148,135.369959 6.24454148,133.64763 L6.24454148,18.1112927 C6.24454148,11.5683931 11.5670374,6.24527335 18.1091703,6.24527335 L111.226017,6.24527335 C108.461099,9.42645947 106.78044,13.574931 106.78044,18.1112927 L106.78044,118.743139 C106.78044,121.624259 104.437517,123.967456 101.556734,123.967456 C99.3052847,123.967456 97.3136172,122.531775 96.6001296,120.395941 L91.8947699,106.275768 C90.5665853,102.289527 86.8503512,99.61211 82.6499217,99.61211 C77.2762009,99.61211 72.9050218,103.983801 72.9050218,109.356932 L72.9050218,111.789173 L56.7216584,111.789173 C54.9970916,111.789173 53.5993877,113.188261 53.5993877,114.91181 C53.5993877,116.636579 54.9970916,118.034447 56.7216584,118.034447 L72.9050218,118.034447 L72.9050218,133.569564 C72.9050218,138.180332 73.8038942,142.676441 75.5772466,146.931034 L80.1703994,157.956625 C80.6704507,159.155668 81.8303256,159.878998 83.0536213,159.878998 C83.4536622,159.878998 83.8610212,159.802152 84.2525246,159.638701 C85.8453703,158.975141 86.5978866,157.146691 85.9344041,155.554878 L81.3412509,144.529287 C79.8874436,141.039497 79.1495633,137.352102 79.1495633,133.570784 L79.1495633,109.358152 C79.1495633,107.42724 80.7192362,105.857383 82.6499217,105.857383 C84.1586126,105.857383 85.4941149,106.81857 85.970993,108.250591 L90.6763528,122.370764 C92.2399273,127.060818 96.6123262,130.21273 101.556734,130.21273 C107.880552,130.21273 113.024981,125.067698 113.024981,118.743139 L113.024981,65.2057768 L117.197359,69.3701057 C124.642024,76.8010052 128.741224,86.6873216 128.741224,97.2054842 L128.741224,130.399356 C128.741224,138.997585 126.793463,147.648264 123.11016,155.417043 C122.37106,156.974702 123.035762,158.837306 124.593238,159.576492 C126.150715,160.315679 128.0131,159.652119 128.752201,158.09324 C132.829447,149.493791 134.985765,139.917299 134.985765,130.399356 L134.985765,97.2054842 C134.985765,85.0162229 130.235279,73.5612696 121.608786,64.9496232 L113.024981,56.3806691 L113.024981,53.3970872 L133.631968,53.3970872 C138.797131,53.3970872 142.99878,49.1949453 142.99878,44.0291771 L142.99878,18.1112927 C142.99878,8.12495418 134.875998,-8.87506723e-15 124.88961,-8.87506723e-15 Z M136.754239,44.0291771 C136.754239,45.7502867 135.354096,47.1518138 133.631968,47.1518138 L113.024981,47.1518138 L113.024981,18.1112927 C113.024981,11.5683931 118.347477,6.24527335 124.88961,6.24527335 C131.431743,6.24527335 136.754239,11.5683931 136.754239,18.1112927 L136.754239,44.0291771 Z" id="Shape"></path>
                        <path d="M64.0065502,136.770267 C63.184515,136.770267 62.3795543,137.104486 61.7990074,137.685102 C61.2184599,138.266936 60.8842795,139.071992 60.8842795,139.892903 C60.8842795,140.715035 61.2184599,141.52009 61.7990074,142.100705 C62.3795543,142.68132 63.184515,143.01554 64.0065502,143.01554 C64.8273658,143.01554 65.6323263,142.68132 66.214093,142.100705 C66.7946406,141.52009 67.128821,140.715035 67.128821,139.892903 C67.128821,139.071992 66.7946406,138.266936 66.214093,137.685102 C65.6323263,137.104486 64.8273658,136.770267 64.0065502,136.770267 Z" id="Path"></path>
                        <path d="M42.9836672,23.1075114 C42.9836672,19.6640725 40.1821607,16.8622381 36.7391257,16.8622381 L23.0011344,16.8622381 C19.5568795,16.8622381 16.7565929,19.6640725 16.7565929,23.1075114 L16.7565929,36.8471128 C16.7565929,40.2905517 19.5568795,43.0923861 23.0011344,43.0923861 L36.7391257,43.0923861 C40.1821607,43.0923861 42.9836672,40.2905517 42.9836672,36.8471128 L42.9836672,23.1075114 Z M36.7391257,36.8471128 L23.0011344,36.8471128 L23.0011344,23.1075114 L36.7391257,23.1075114 L36.7427847,36.8471128 C36.7427847,36.8471128 36.7415648,36.8471128 36.7391257,36.8471128 Z" id="Shape"></path>
                        <path d="M42.9836672,60.5791515 C42.9836672,57.1357126 40.1821607,54.3338782 36.7391257,54.3338782 L23.0011344,54.3338782 C19.5568795,54.3338782 16.7565929,57.1357126 16.7565929,60.5791515 L16.7565929,74.3187529 C16.7565929,77.7621918 19.5568795,80.5640262 23.0011344,80.5640262 L36.7391257,80.5640262 C40.1821607,80.5640262 42.9836672,77.7621918 42.9836672,74.3187529 L42.9836672,60.5791515 Z M36.7391257,74.3187529 L23.0011344,74.3187529 L23.0011344,60.5791515 L36.7391257,60.5791515 L36.7427847,74.3187529 C36.7427847,74.3187529 36.7415648,74.3187529 36.7391257,74.3187529 Z" id="Shape"></path>
                        <path d="M36.7391257,91.8055183 L23.0011344,91.8055183 C19.5568795,91.8055183 16.7565929,94.6061331 16.7565929,98.0507916 L16.7565929,111.789173 C16.7565929,115.233832 19.5568795,118.034447 23.0011344,118.034447 L36.7391257,118.034447 C40.1821607,118.034447 42.9836672,115.233832 42.9836672,111.789173 L42.9836672,98.0507916 C42.9836672,94.6061331 40.1821607,91.8055183 36.7391257,91.8055183 Z M36.7391257,111.789173 L23.0011344,111.789173 L23.0011344,98.0507916 L36.7391257,98.0507916 L36.7427847,111.789173 C36.7427847,111.789173 36.7415648,111.789173 36.7391257,111.789173 Z" id="Shape"></path>
                        <path d="M92.522883,43.0923861 C94.2474499,43.0923861 95.6451538,41.6945185 95.6451538,39.9697495 C95.6451538,38.2449804 94.2474499,36.8471128 92.522883,36.8471128 L70.9987291,36.8471128 C69.2741625,36.8471128 67.8764584,38.2449804 67.8764584,39.9697495 C67.8764584,41.6945185 69.2741625,43.0923861 70.9987291,43.0923861 L92.522883,43.0923861 Z" id="Path"></path>
                        <path d="M56.7216584,43.0923861 C57.5436936,43.0923861 58.3486541,42.7581666 58.9292013,42.177551 C59.5097485,41.5969361 59.8439292,40.7906613 59.8439292,39.9697495 C59.8439292,39.1488376 59.5097485,38.3425628 58.9292013,37.7619479 C58.3486541,37.1813323 57.5436936,36.8471128 56.7216584,36.8471128 C55.8971838,36.8471128 55.0946625,37.1813323 54.5141153,37.7619479 C53.931129,38.3425628 53.5993877,39.1488376 53.5993877,39.9697495 C53.5993877,40.7906613 53.931129,41.5969361 54.5141153,42.177551 C55.0946625,42.7581666 55.8971838,43.0923861 56.7216584,43.0923861 Z" id="Path"></path>
                        <path d="M56.7204386,80.5640262 L92.522883,80.5640262 C94.2474499,80.5640262 95.6451538,79.1661586 95.6451538,77.4413896 C95.6451538,75.7166206 94.2474499,74.3187529 92.522883,74.3187529 L56.7204386,74.3187529 C54.9970916,74.3187529 53.5981678,75.7166206 53.5981678,77.4413896 C53.5981678,79.1661586 54.9970916,80.5640262 56.7204386,80.5640262 L56.7204386,80.5640262 Z" id="Path"></path>
                    </g>
                </g>
            </g>
        </g>
    </g>
</svg>