<?xml version="1.0" encoding="UTF-8"?>
<svg width="18px" height="18px" viewBox="0 0 18 18" version="1.1" xmlns="http://www.w3.org/2000/svg" xmlns:xlink="http://www.w3.org/1999/xlink">
    <!-- Generator: Sketch 63 (92445) - https://sketch.com -->
    <title>Element/Icon/plus</title>
    <desc>Created with Sketch.</desc>
    <g id="Flow" stroke="none" stroke-width="1" fill="none" fill-rule="evenodd">
        <g id="00_assets" transform="translate(-704.000000, -296.000000)" fill="#0DA36A">
            <g id="Element/Icon/plus" transform="translate(701.000000, 293.000000)">
                <path d="M12.5,3 C13.0522847,3 13.5,3.44771525 13.5,4 L13.5,10.499 L20,10.5 C20.5522847,10.5 21,10.9477153 21,11.5 L21,12.5 C21,13.0522847 20.5522847,13.5 20,13.5 L13.5,13.499 L13.5,20 C13.5,20.5522847 13.0522847,21 12.5,21 L11.5,21 C10.9477153,21 10.5,20.5522847 10.5,20 L10.5,13.499 L4,13.5 C3.44771525,13.5 3,13.0522847 3,12.5 L3,11.5 C3,10.9477153 3.44771525,10.5 4,10.5 L10.5,10.499 L10.5,4 C10.5,3.44771525 10.9477153,3 11.5,3 L12.5,3 Z" id="Combined-Shape"></path>
            </g>
        </g>
    </g>
</svg>