<svg xmlns="http://www.w3.org/2000/svg" width="160" height="160" viewBox="0 0 160 160">
  <g id="cgi_box" data-name="cgi/box" opacity="0.749">
    <g id="cgi_box-2" data-name="cgi/box">
      <circle id="Oval" cx="37.5" cy="37.5" r="37.5" transform="translate(49 2)" fill="#cdeeb9"/>
      <path id="Path_4" data-name="Path 4" d="M0,38.826l18.525-12.9L30.1,15.6,35.82,2.722,44.661,0,55.307,4.812,58.555,15.6,52.52,35.414l6.035,21.476H49.823l-3.871,3.978H16.576l-3.035-9.139L2.349,40.8Z" transform="translate(94.693 23.109)" fill="#f2fac4"/>
      <path id="Path_3" data-name="Path 3" d="M2.581,20.07,0,13.092S5.479-2.347,11.772.421s11.454,5.33,11.454,5.33L20.963,20.07Z" transform="translate(15.484 63.908)" fill="#ffbebe"/>
      <path id="Path_3_Copy" data-name="Path 3 Copy" d="M2.581,20.07,0,13.092S5.479-2.347,11.772.421s11.454,5.33,11.454,5.33L20.963,20.07Z" transform="translate(37 63.908)" fill="#e7d2e6"/>
      <rect id="Rectangle" width="51" height="67" transform="translate(11 88)" fill="#ffe5eb"/>
      <rect id="Rectangle_Copy_3" data-name="Rectangle Copy 3" width="83" height="67" transform="translate(67 88)" fill="#ffeddc"/>
      <circle id="Oval-2" data-name="Oval" cx="17.5" cy="17.5" r="17.5" transform="translate(24 34)" fill="#e1fff4"/>
      <circle id="Oval-3" data-name="Oval" cx="13" cy="13" r="13" transform="translate(52 49)" fill="#b9eeca"/>
      <path id="Oval-4" data-name="Oval" d="M50,25C59.1,21.044,38.807,0,25,0S0,25,0,25,40.9,28.956,50,25Z" transform="translate(59 57)" fill="#e1fff4"/>
      <g id="harvest">
        <path id="Shape" d="M141.935,160H0V82.58A5.166,5.166,0,0,1,5.161,77.42H12.9a15.507,15.507,0,0,1,10.937-14.8A20.625,20.625,0,0,1,41.29,30.968a20.766,20.766,0,0,1,3.391.3C48.823,13.159,65.437,0,85.162,0c19.507,0,35.772,12.875,40.145,30.506.178-.394.355-.789.492-1.1a14.627,14.627,0,0,1,3.061-4.493,14.489,14.489,0,0,1,16.715-2.749,20.974,20.974,0,0,1,5.463,3.936l.467.47c2.96,3.14,3.335,7.146,3.335,10.294a15.236,15.236,0,0,1-.949,5.29c-1.264,3.43-4.212,11.958-4.212,17.12,0,3.541,1.329,7.471,2.612,11.275a51.37,51.37,0,0,1,1.976,6.875h.573A5.166,5.166,0,0,1,160,82.58V160Z" transform="translate(0 0)" fill="#63b294"/>
        <path id="Path" d="M23.226,0H7.742a7.742,7.742,0,0,0,0,15.484h2.581V10.323H7.742a2.581,2.581,0,1,1,0-5.161H23.226a2.581,2.581,0,0,1,0,5.161H20.645v5.161h2.581A7.742,7.742,0,0,0,23.226,0Z" transform="translate(25.806 92.903)" fill="#fbb0c1"/>
        <path id="Path-2" data-name="Path" d="M15.484,0H10.323A2.583,2.583,0,0,1,7.742,2.581,2.583,2.583,0,0,1,5.161,0H0A7.751,7.751,0,0,0,7.742,7.742,7.751,7.751,0,0,0,15.484,0Z" transform="translate(77.419 67.097)" fill="#86dbca"/>
        <path id="Path-3" data-name="Path" d="M7.742,7.742A7.751,7.751,0,0,0,15.484,0H10.323A2.583,2.583,0,0,1,7.742,2.581,2.583,2.583,0,0,1,5.161,0H0A7.751,7.751,0,0,0,7.742,7.742Z" transform="translate(33.548 41.29)" fill="#86dbca"/>
        <path id="Path-4" data-name="Path" d="M7.742,7.742V2.581A2.429,2.429,0,0,1,5.161,0H0A7.5,7.5,0,0,0,7.742,7.742Z" transform="translate(136.774 30.968)" fill="#c2dc7c"/>
      </g>
    </g>
  </g>
</svg>
