<?xml version="1.0" encoding="UTF-8"?>
<svg width="46px" height="46px" viewBox="0 0 46 46" version="1.1" xmlns="http://www.w3.org/2000/svg" xmlns:xlink="http://www.w3.org/1999/xlink">
    <!-- Generator: Sketch 63 (92445) - https://sketch.com -->
    <title>progress/checkpoint/to_do</title>
    <desc>Created with Sketch.</desc>
    <g id="Flow" stroke="none" stroke-width="1" fill="none" fill-rule="evenodd">
        <g id="00_assets" transform="translate(-602.000000, -146.000000)">
            <g id="progress/checkpoint/to_do" transform="translate(602.000000, 146.000000)">
                <g>
                    <circle id="Oval" fill="#FFFFFF" cx="23" cy="23" r="23"></circle>
                    <circle id="Oval" fill="#A8D4C5" cx="23" cy="23" r="16"></circle>
                    <g id="Element/Icon/to_do" transform="translate(15.000000, 15.000000)" fill="#FFFFFF">
                        <path d="M8.108,10.532 C8.278,10.532 8.4225,10.4753333 8.5415,10.362 C8.6605,10.2486667 8.73133333,10.0843333 8.754,9.869 L8.754,9.869 L9.383,3.273 C9.42833333,2.865 9.32633333,2.53916667 9.077,2.2955 C8.82766667,2.05183333 8.50466667,1.93 8.108,1.93 C7.734,1.93 7.42516667,2.03483333 7.1815,2.2445 C6.93783333,2.45416667 6.816,2.73466667 6.816,3.086 L6.816,3.086 L6.833,3.256 L7.462,9.869 C7.48466667,10.0843333 7.5555,10.2486667 7.6745,10.362 C7.7935,10.4753333 7.938,10.532 8.108,10.532 Z M8.108,14.102 C8.47066667,14.102 8.771,13.9801667 9.009,13.7365 C9.247,13.4928333 9.366,13.1896667 9.366,12.827 C9.366,12.4643333 9.247,12.1611667 9.009,11.9175 C8.771,11.6738333 8.47066667,11.552 8.108,11.552 C7.74533333,11.552 7.445,11.6738333 7.207,11.9175 C6.969,12.1611667 6.85,12.4643333 6.85,12.827 C6.85,13.1896667 6.969,13.4928333 7.207,13.7365 C7.445,13.9801667 7.74533333,14.102 8.108,14.102 Z" id="!"></path>
                    </g>
                </g>
            </g>
        </g>
    </g>
</svg>