<svg id="SvgjsSvg1774" width="5000" height="1749" xmlns="http://www.w3.org/2000/svg" version="1.1" xmlns:xlink="http://www.w3.org/1999/xlink" xmlns:svgjs="http://svgjs.com/svgjs" viewBox="0 0 292.7000045776367 102.4000015258789"><defs id="SvgjsDefs1775"></defs><g id="SvgjsG1777" transform="rotate(0 43.45624923706055 50)"><svg height="100" viewBox="0 0 147.28799438476562 169.4510040283203" xmlns="http://www.w3.org/2000/svg" version="1.1" xmlns:xlink="http://www.w3.org/1999/xlink" xmlns:svgjs="http://svgjs.com/svgjs" preserveAspectRatio="none" width="86.9124984741211" x="0" y="0"><g><svg data-color="1" xmlns="http://www.w3.org/2000/svg" xmlns:xlink="http://www.w3.org/1999/xlink" version="1.1" baseProfile="basic" x="0px" y="0px" viewBox="26.493999481201172 15.76099967956543 147.28799438476562 169.4510040283203" xml:space="preserve" width="147.28799438476562" height="169.4510040283203" fill="#dc0808" fill-opacity="0.9"><g><polygon points="109.434,21.799 99.229,15.761 26.494,58.054 36.587,63.781  "></polygon><polygon points="113.824,24.394 41.089,66.687 51.183,72.415 124.028,30.432  "></polygon><polygon points="139.084,39.097 128.88,33.059 56.145,75.352 66.207,81.062 66.398,164.886 71.135,167.472    71.135,84.026 66.249,81.073  "></polygon><polygon points="168.973,56.41 158.769,50.372 86.055,92.654 81.321,89.736 154.125,47.778 143.921,41.74    71.185,84.034 81.23,89.734 81.418,173.519 86.063,176.105 86.063,92.682 96.128,98.393  "></polygon><polygon points="36.577,147.524 41.039,150.11 41.039,66.665 36.396,63.686  "></polygon><polygon points="51.421,156.253 56.158,158.839 56.158,75.393 51.23,72.415  "></polygon><polygon points="100.979,101.269 100.979,185.212 173.682,143.211 173.782,59.367  "></polygon></g></svg></g><defs id="SvgjsDefs1776"></defs></svg></g><g id="SvgjsG1779" transform="rotate(0 169.7375030517578 36.95625019073486)"><svg xmlns="http://www.w3.org/2000/svg" xmlns:xlink="http://www.w3.org/1999/xlink" width="135.65000915527344" viewBox="2.5999999046325684 7.449999809265137 135.6599884033203 26.299999237060547" overflow="visible" style="overflow: visible;" transform="" version="1.1" xmlns:svgjs="http://svgjs.com/svgjs" preserveAspectRatio="none" height="26.287500381469727" x="101.9124984741211" y="23.8125" fill="#000000" stroke="none"><path stroke="none" fill="#2f2f2f" d="M17.14 33.40L12.01 23.54L7.05 23.54L7.05 33.40L2.60 33.40L2.60 7.80L11.60 7.80L11.60 7.80Q16.03 7.80 18.44 9.79L18.44 9.79L18.44 9.79Q20.85 11.78 20.85 15.54L20.85 15.54L20.85 15.54Q20.85 18.11 19.61 19.84L19.61 19.84L19.61 19.84Q18.37 21.57 16.15 22.50L16.15 22.50L21.90 33.17L21.90 33.40L17.14 33.40ZM7.05 11.39L7.05 19.97L11.62 19.97L11.62 19.97Q13.87 19.97 15.13 18.83L15.13 18.83L15.13 18.83Q16.40 17.70 16.40 15.73L16.40 15.73L16.40 15.73Q16.40 13.68 15.23 12.55L15.23 12.55L15.23 12.55Q14.06 11.43 11.74 11.39L11.74 11.39L7.05 11.39ZM58.49 19.85L58.49 21.27L58.49 21.27Q58.49 25.03 57.19 27.87L57.19 27.87L57.19 27.87Q55.89 30.71 53.47 32.23L53.47 32.23L53.47 32.23Q51.06 33.75 47.91 33.75L47.91 33.75L47.91 33.75Q44.80 33.75 42.36 32.23L42.36 32.23L42.36 32.23Q39.93 30.71 38.60 27.90L38.60 27.90L38.60 27.90Q37.28 25.08 37.26 21.41L37.26 21.41L37.26 19.97L37.26 19.97Q37.26 16.22 38.58 13.36L38.58 13.36L38.58 13.36Q39.91 10.49 42.33 8.97L42.33 8.97L42.33 8.97Q44.75 7.45 47.88 7.45L47.88 7.45L47.88 7.45Q51.00 7.45 53.42 8.96L53.42 8.96L53.42 8.96Q55.84 10.46 57.16 13.28L57.16 13.28L57.16 13.28Q58.47 16.10 58.49 19.85L58.49 19.85ZM54.04 21.27L54.04 19.93L54.04 19.93Q54.04 15.68 52.44 13.41L52.44 13.41L52.44 13.41Q50.83 11.14 47.88 11.14L47.88 11.14L47.88 11.14Q44.99 11.14 43.37 13.40L43.37 13.40L43.37 13.40Q41.74 15.66 41.71 19.79L41.71 19.79L41.71 21.27L41.71 21.27Q41.71 25.49 43.35 27.79L43.35 27.79L43.35 27.79Q44.99 30.09 47.91 30.09L47.91 30.09L47.91 30.09Q50.86 30.09 52.45 27.84L52.45 27.84L52.45 27.84Q54.04 25.59 54.04 21.27L54.04 21.27ZM75.92 7.80L81.69 7.80L89.07 27.42L96.44 7.80L102.18 7.80L102.18 33.40L97.75 33.40L97.75 24.96L98.19 13.68L90.63 33.40L87.45 33.40L79.91 13.69L80.35 24.96L80.35 33.40L75.92 33.40L75.92 7.80ZM133.82 26.81L133.82 26.81L133.82 26.81Q133.82 25.12 132.63 24.21L132.63 24.21L132.63 24.21Q131.44 23.29 128.35 22.36L128.35 22.36L128.35 22.36Q125.26 21.43 123.43 20.29L123.43 20.29L123.43 20.29Q119.93 18.09 119.93 14.55L119.93 14.55L119.93 14.55Q119.93 11.46 122.45 9.46L122.45 9.46L122.45 9.46Q124.97 7.45 129 7.45L129 7.45L129 7.45Q131.67 7.45 133.76 8.44L133.76 8.44L133.76 8.44Q135.86 9.42 137.05 11.24L137.05 11.24L137.05 11.24Q138.25 13.06 138.25 15.28L138.25 15.28L133.82 15.28L133.82 15.28Q133.82 13.27 132.56 12.14L132.56 12.14L132.56 12.14Q131.30 11.00 128.96 11.00L128.96 11.00L128.96 11.00Q126.79 11.00 125.58 11.94L125.58 11.94L125.58 11.94Q124.38 12.87 124.38 14.54L124.38 14.54L124.38 14.54Q124.38 15.94 125.68 16.88L125.68 16.88L125.68 16.88Q126.98 17.82 129.97 18.71L129.97 18.71L129.97 18.71Q132.96 19.60 134.77 20.73L134.77 20.73L134.77 20.73Q136.58 21.87 137.42 23.33L137.42 23.33L137.42 23.33Q138.26 24.80 138.26 26.77L138.26 26.77L138.26 26.77Q138.26 29.97 135.81 31.86L135.81 31.86L135.81 31.86Q133.36 33.75 129.16 33.75L129.16 33.75L129.16 33.75Q126.38 33.75 124.05 32.72L124.05 32.72L124.05 32.72Q121.72 31.69 120.43 29.88L120.43 29.88L120.43 29.88Q119.14 28.07 119.14 25.66L119.14 25.66L123.59 25.66L123.59 25.66Q123.59 27.84 125.03 29.04L125.03 29.04L125.03 29.04Q126.47 30.23 129.16 30.23L129.16 30.23L129.16 30.23Q131.48 30.23 132.65 29.29L132.65 29.29L132.65 29.29Q133.82 28.35 133.82 26.81Z" transform="rotate(0 70.42999410629272 20.59999942779541)"></path><defs id="SvgjsDefs1778"></defs></svg></g><g id="SvgjsG1781" transform="rotate(0 197.3062515258789 69.33750009536743)"><svg xmlns="http://www.w3.org/2000/svg" xmlns:xlink="http://www.w3.org/1999/xlink" width="190.78750610351562" viewBox="1.4900000095367432 3.200000047683716 190.7899932861328 13.679999351501465" overflow="visible" style="overflow: visible;" transform="" version="1.1" xmlns:svgjs="http://svgjs.com/svgjs" preserveAspectRatio="none" height="13.675000190734863" x="101.9124984741211" y="62.5" fill="#000000" stroke="none"><path stroke="none" fill="#242424" d="M8.06 16.70L5.49 11.37L2.50 11.37L2.50 16.70L1.49 16.70L1.49 3.90L5.00 3.90L5.00 3.90Q6.75 3.90 7.71 4.90L7.71 4.90L7.71 4.90Q8.67 5.90 8.67 7.67L8.67 7.67L8.67 7.67Q8.67 8.91 8.08 9.85L8.08 9.85L8.08 9.85Q7.48 10.78 6.47 11.14L6.47 11.14L9.13 16.58L9.13 16.70L8.06 16.70ZM2.50 4.85L2.50 10.44L5.18 10.44L5.18 10.44Q6.31 10.44 6.99 9.66L6.99 9.66L6.99 9.66Q7.66 8.89 7.66 7.67L7.66 7.67L7.66 7.67Q7.66 6.33 6.96 5.59L6.96 5.59L6.96 5.59Q6.26 4.85 4.99 4.85L4.99 4.85L2.50 4.85ZM11.83 12.59L11.83 11.46L11.83 11.46Q11.83 9.40 12.76 8.21L12.76 8.21L12.76 8.21Q13.69 7.01 15.30 7.01L15.30 7.01L15.30 7.01Q16.92 7.01 17.84 8.19L17.84 8.19L17.84 8.19Q18.77 9.37 18.78 11.43L18.78 11.43L18.78 12.45L18.78 12.45Q18.78 14.54 17.84 15.71L17.84 15.71L17.84 15.71Q16.91 16.88 15.32 16.88L15.32 16.88L15.32 16.88Q13.73 16.88 12.79 15.73L12.79 15.73L12.79 15.73Q11.86 14.59 11.83 12.59L11.83 12.59ZM12.81 11.39L12.81 12.45L12.81 12.45Q12.81 14.09 13.48 15.03L13.48 15.03L13.48 15.03Q14.14 15.97 15.32 15.97L15.32 15.97L15.32 15.97Q16.52 15.97 17.16 15.06L17.16 15.06L17.16 15.06Q17.80 14.16 17.80 12.47L17.80 12.47L17.80 11.46L17.80 11.46Q17.80 9.82 17.14 8.87L17.14 8.87L17.14 8.87Q16.47 7.93 15.30 7.93L15.30 7.93L15.30 7.93Q14.17 7.93 13.50 8.85L13.50 8.85L13.50 8.85Q12.83 9.77 12.81 11.39L12.81 11.39ZM28.53 11.34L28.53 12.39L28.53 12.39Q28.53 14.59 27.76 15.73L27.76 15.73L27.76 15.73Q26.99 16.88 25.47 16.88L25.47 16.88L25.47 16.88Q23.79 16.88 22.98 15.42L22.98 15.42L22.94 16.70L22.03 16.70L22.03 3.20L23.00 3.20L23.00 8.52L23.00 8.52Q23.80 7.01 25.45 7.01L25.45 7.01L25.45 7.01Q26.99 7.01 27.74 8.10L27.74 8.10L27.74 8.10Q28.50 9.18 28.53 11.34L28.53 11.34ZM27.55 12.45L27.55 11.50L27.55 11.50Q27.55 9.69 27.01 8.82L27.01 8.82L27.01 8.82Q26.48 7.95 25.26 7.95L25.26 7.95L25.26 7.95Q23.63 7.95 23.00 9.67L23.00 9.67L23.00 14.38L23.00 14.38Q23.30 15.13 23.88 15.53L23.88 15.53L23.88 15.53Q24.46 15.94 25.27 15.94L25.27 15.94L25.27 15.94Q26.44 15.94 26.99 15.10L26.99 15.10L26.99 15.10Q27.54 14.25 27.55 12.45L27.55 12.45ZM31.42 12.59L31.42 11.46L31.42 11.46Q31.42 9.40 32.35 8.21L32.35 8.21L32.35 8.21Q33.28 7.01 34.89 7.01L34.89 7.01L34.89 7.01Q36.50 7.01 37.43 8.19L37.43 8.19L37.43 8.19Q38.36 9.37 38.37 11.43L38.37 11.43L38.37 12.45L38.37 12.45Q38.37 14.54 37.43 15.71L37.43 15.71L37.43 15.71Q36.50 16.88 34.90 16.88L34.90 16.88L34.90 16.88Q33.31 16.88 32.38 15.73L32.38 15.73L32.38 15.73Q31.45 14.59 31.42 12.59L31.42 12.59ZM32.40 11.39L32.40 12.45L32.40 12.45Q32.40 14.09 33.06 15.03L33.06 15.03L33.06 15.03Q33.73 15.97 34.90 15.97L34.90 15.97L34.90 15.97Q36.11 15.97 36.75 15.06L36.75 15.06L36.75 15.06Q37.38 14.16 37.39 12.47L37.39 12.47L37.39 11.46L37.39 11.46Q37.39 9.82 36.72 8.87L36.72 8.87L36.72 8.87Q36.06 7.93 34.89 7.93L34.89 7.93L34.89 7.93Q33.75 7.93 33.08 8.85L33.08 8.85L33.08 8.85Q32.42 9.77 32.40 11.39L32.40 11.39ZM42.11 4.76L43.08 4.76L43.08 7.19L44.71 7.19L44.71 8.07L43.08 8.07L43.08 14.39L43.08 14.39Q43.08 15.17 43.32 15.55L43.32 15.55L43.32 15.55Q43.55 15.93 44.10 15.93L44.10 15.93L44.10 15.93Q44.33 15.93 44.80 15.85L44.80 15.85L44.83 16.73L44.83 16.73Q44.49 16.88 43.87 16.88L43.87 16.88L43.87 16.88Q42.15 16.88 42.11 14.52L42.11 14.52L42.11 8.07L40.64 8.07L40.64 7.19L42.11 7.19L42.11 4.76ZM48.93 7.19L48.93 16.70L47.94 16.70L47.94 7.19L48.93 7.19ZM47.80 4.45L47.80 4.45L47.80 4.45Q47.80 4.15 47.97 3.94L47.97 3.94L47.97 3.94Q48.14 3.73 48.44 3.73L48.44 3.73L48.44 3.73Q48.75 3.73 48.92 3.94L48.92 3.94L48.92 3.94Q49.09 4.15 49.09 4.45L49.09 4.45L49.09 4.45Q49.09 4.75 48.92 4.95L48.92 4.95L48.92 4.95Q48.75 5.16 48.44 5.16L48.44 5.16L48.44 5.16Q48.14 5.16 47.97 4.95L47.97 4.95L47.97 4.95Q47.80 4.75 47.80 4.45ZM55.63 15.97L55.63 15.97L55.63 15.97Q56.65 15.97 57.20 15.40L57.20 15.40L57.20 15.40Q57.74 14.83 57.79 13.75L57.79 13.75L58.73 13.75L58.73 13.75Q58.66 15.21 57.79 16.04L57.79 16.04L57.79 16.04Q56.93 16.88 55.63 16.88L55.63 16.88L55.63 16.88Q53.94 16.88 53.07 15.79L53.07 15.79L53.07 15.79Q52.20 14.70 52.19 12.57L52.19 12.57L52.19 11.41L52.19 11.41Q52.19 9.23 53.05 8.12L53.05 8.12L53.05 8.12Q53.92 7.01 55.62 7.01L55.62 7.01L55.62 7.01Q57.04 7.01 57.86 7.91L57.86 7.91L57.86 7.91Q58.67 8.80 58.73 10.40L58.73 10.40L57.79 10.40L57.79 10.40Q57.74 9.22 57.19 8.57L57.19 8.57L57.19 8.57Q56.63 7.93 55.62 7.93L55.62 7.93L55.62 7.93Q54.36 7.93 53.76 8.78L53.76 8.78L53.76 8.78Q53.17 9.63 53.17 11.40L53.17 11.40L53.17 12.48L53.17 12.48Q53.17 14.31 53.77 15.14L53.77 15.14L53.77 15.14Q54.37 15.97 55.63 15.97ZM66.55 14.36L66.55 14.36L66.55 14.36Q66.55 13.75 66.04 13.28L66.04 13.28L66.04 13.28Q65.53 12.82 64.31 12.27L64.31 12.27L64.31 12.27Q63.09 11.72 62.61 11.36L62.61 11.36L62.61 11.36Q62.13 11.00 61.90 10.56L61.90 10.56L61.90 10.56Q61.67 10.13 61.67 9.54L61.67 9.54L61.67 9.54Q61.67 8.45 62.46 7.73L62.46 7.73L62.46 7.73Q63.25 7.01 64.51 7.01L64.51 7.01L64.51 7.01Q65.86 7.01 66.67 7.78L66.67 7.78L66.67 7.78Q67.48 8.54 67.48 9.80L67.48 9.80L66.50 9.80L66.50 9.80Q66.50 8.99 65.95 8.46L65.95 8.46L65.95 8.46Q65.39 7.93 64.51 7.93L64.51 7.93L64.51 7.93Q63.65 7.93 63.14 8.37L63.14 8.37L63.14 8.37Q62.63 8.81 62.63 9.51L62.63 9.51L62.63 9.51Q62.63 10.08 63.02 10.44L63.02 10.44L63.02 10.44Q63.41 10.80 64.69 11.42L64.69 11.42L64.69 11.42Q66.02 12.00 66.52 12.38L66.52 12.38L66.52 12.38Q67.02 12.75 67.28 13.21L67.28 13.21L67.28 13.21Q67.53 13.68 67.53 14.31L67.53 14.31L67.53 14.31Q67.53 15.49 66.71 16.18L66.71 16.18L66.71 16.18Q65.90 16.88 64.56 16.88L64.56 16.88L64.56 16.88Q63.14 16.88 62.27 16.10L62.27 16.10L62.27 16.10Q61.40 15.33 61.40 14.11L61.40 14.11L62.38 14.11L62.38 14.11Q62.42 14.99 62.97 15.48L62.97 15.48L62.97 15.48Q63.52 15.97 64.56 15.97L64.56 15.97L64.56 15.97Q65.46 15.97 66.00 15.53L66.00 15.53L66.00 15.53Q66.55 15.09 66.55 14.36ZM84.01 8.96L84.01 11.69L84.01 11.69Q84.01 14.17 82.93 15.52L82.93 15.52L82.93 15.52Q81.84 16.88 79.88 16.88L79.88 16.88L79.88 16.88Q77.94 16.88 76.84 15.52L76.84 15.52L76.84 15.52Q75.74 14.17 75.73 11.72L75.73 11.72L75.73 8.93L75.73 8.93Q75.73 6.46 76.83 5.09L76.83 5.09L76.83 5.09Q77.92 3.73 79.87 3.73L79.87 3.73L79.87 3.73Q81.83 3.73 82.92 5.10L82.92 5.10L82.92 5.10Q84.01 6.47 84.01 8.96L84.01 8.96ZM83.00 11.69L83.00 8.91L83.00 8.91Q83.00 6.81 82.20 5.76L82.20 5.76L82.20 5.76Q81.39 4.70 79.87 4.70L79.87 4.70L79.87 4.70Q78.40 4.70 77.57 5.73L77.57 5.73L77.57 5.73Q76.75 6.77 76.73 8.82L76.73 8.82L76.73 11.69L76.73 11.69Q76.73 13.80 77.56 14.86L77.56 14.86L77.56 14.86Q78.40 15.92 79.88 15.92L79.88 15.92L79.88 15.92Q81.41 15.92 82.21 14.86L82.21 14.86L82.21 14.86Q83.00 13.81 83.00 11.69L83.00 11.69ZM87.70 3.90L89.02 3.90L92.90 15.16L96.79 3.90L98.12 3.90L98.12 16.70L97.12 16.70L97.12 11.15L97.21 5.57L93.29 16.70L92.51 16.70L88.61 5.63L88.70 11.12L88.70 16.70L87.70 16.70L87.70 3.90ZM101.94 7.19L102.87 7.19L102.90 8.70L102.90 8.70Q103.32 7.93 103.98 7.47L103.98 7.47L103.98 7.47Q104.63 7.01 105.46 7.01L105.46 7.01L105.46 7.01Q107.95 7.01 108.01 10.33L108.01 10.33L108.01 16.70L107.05 16.70L107.05 10.43L107.05 10.43Q107.04 9.16 106.60 8.55L106.60 8.55L106.60 8.55Q106.16 7.95 105.22 7.95L105.22 7.95L105.22 7.95Q104.45 7.95 103.84 8.52L103.84 8.52L103.84 8.52Q103.23 9.10 102.92 10.10L102.92 10.10L102.92 16.70L101.94 16.70L101.94 7.19ZM112.70 7.19L112.70 16.70L111.71 16.70L111.71 7.19L112.70 7.19ZM111.57 4.45L111.57 4.45L111.57 4.45Q111.57 4.15 111.74 3.94L111.74 3.94L111.74 3.94Q111.91 3.73 112.21 3.73L112.21 3.73L112.21 3.73Q112.52 3.73 112.69 3.94L112.69 3.94L112.69 3.94Q112.86 4.15 112.86 4.45L112.86 4.45L112.86 4.45Q112.86 4.75 112.69 4.95L112.69 4.95L112.69 4.95Q112.52 5.16 112.21 5.16L112.21 5.16L112.21 5.16Q111.91 5.16 111.74 4.95L111.74 4.95L111.74 4.95Q111.57 4.75 111.57 4.45ZM127.66 13.55L127.66 13.55L127.66 13.55Q127.66 12.48 127.05 11.87L127.05 11.87L127.05 11.87Q126.44 11.25 124.77 10.69L124.77 10.69L124.77 10.69Q123.10 10.13 122.32 9.43L122.32 9.43L122.32 9.43Q121.29 8.53 121.29 7.04L121.29 7.04L121.29 7.04Q121.29 5.57 122.30 4.65L122.30 4.65L122.30 4.65Q123.31 3.73 124.91 3.73L124.91 3.73L124.91 3.73Q126.54 3.73 127.58 4.80L127.58 4.80L127.58 4.80Q128.62 5.87 128.62 7.56L128.62 7.56L127.61 7.56L127.61 7.56Q127.61 6.27 126.88 5.47L126.88 5.47L126.88 5.47Q126.16 4.68 124.91 4.68L124.91 4.68L124.91 4.68Q123.70 4.68 123.00 5.33L123.00 5.33L123.00 5.33Q122.30 5.99 122.30 7.02L122.30 7.02L122.30 7.02Q122.30 7.99 122.96 8.60L122.96 8.60L122.96 8.60Q123.62 9.22 125.06 9.70L125.06 9.70L125.06 9.70Q126.50 10.18 127.24 10.69L127.24 10.69L127.24 10.69Q127.98 11.21 128.33 11.90L128.33 11.90L128.33 11.90Q128.68 12.59 128.68 13.54L128.68 13.54L128.68 13.54Q128.68 15.04 127.66 15.96L127.66 15.96L127.66 15.96Q126.65 16.88 124.98 16.88L124.98 16.88L124.98 16.88Q123.85 16.88 122.93 16.41L122.93 16.41L122.93 16.41Q122 15.95 121.48 15.09L121.48 15.09L121.48 15.09Q120.95 14.22 120.95 13.04L120.95 13.04L121.96 13.04L121.96 13.04Q121.96 14.40 122.77 15.17L122.77 15.17L122.77 15.17Q123.59 15.94 124.98 15.94L124.98 15.94L124.98 15.94Q126.19 15.94 126.93 15.29L126.93 15.29L126.93 15.29Q127.66 14.64 127.66 13.55ZM131.38 12.59L131.38 11.46L131.38 11.46Q131.38 9.40 132.31 8.21L132.31 8.21L132.31 8.21Q133.24 7.01 134.85 7.01L134.85 7.01L134.85 7.01Q136.46 7.01 137.39 8.19L137.39 8.19L137.39 8.19Q138.32 9.37 138.33 11.43L138.33 11.43L138.33 12.45L138.33 12.45Q138.33 14.54 137.39 15.71L137.39 15.71L137.39 15.71Q136.46 16.88 134.87 16.88L134.87 16.88L134.87 16.88Q133.27 16.88 132.34 15.73L132.34 15.73L132.34 15.73Q131.41 14.59 131.38 12.59L131.38 12.59ZM132.36 11.39L132.36 12.45L132.36 12.45Q132.36 14.09 133.02 15.03L133.02 15.03L133.02 15.03Q133.69 15.97 134.87 15.97L134.87 15.97L134.87 15.97Q136.07 15.97 136.71 15.06L136.71 15.06L136.71 15.06Q137.34 14.16 137.35 12.47L137.35 12.47L137.35 11.46L137.35 11.46Q137.35 9.82 136.68 8.87L136.68 8.87L136.68 8.87Q136.02 7.93 134.85 7.93L134.85 7.93L134.85 7.93Q133.71 7.93 133.05 8.85L133.05 8.85L133.05 8.85Q132.38 9.77 132.36 11.39L132.36 11.39ZM142.67 3.20L142.67 16.70L141.68 16.70L141.68 3.20L142.67 3.20ZM151.48 16.70L151.46 15.57L151.46 15.57Q150.66 16.88 148.96 16.88L148.96 16.88L148.96 16.88Q147.67 16.88 147.01 15.98L147.01 15.98L147.01 15.98Q146.35 15.08 146.34 13.34L146.34 13.34L146.34 7.19L147.31 7.19L147.31 13.32L147.31 13.32Q147.31 14.61 147.76 15.28L147.76 15.28L147.76 15.28Q148.22 15.94 149.08 15.94L149.08 15.94L149.08 15.94Q150.93 15.94 151.45 14.15L151.45 14.15L151.45 7.19L152.43 7.19L152.43 16.70L151.48 16.70ZM156.52 4.76L157.50 4.76L157.50 7.19L159.13 7.19L159.13 8.07L157.50 8.07L157.50 14.39L157.50 14.39Q157.50 15.17 157.73 15.55L157.73 15.55L157.73 15.55Q157.97 15.93 158.51 15.93L158.51 15.93L158.51 15.93Q158.75 15.93 159.21 15.85L159.21 15.85L159.24 16.73L159.24 16.73Q158.91 16.88 158.28 16.88L158.28 16.88L158.28 16.88Q156.57 16.88 156.52 14.52L156.52 14.52L156.52 8.07L155.06 8.07L155.06 7.19L156.52 7.19L156.52 4.76ZM163.34 7.19L163.34 16.70L162.36 16.70L162.36 7.19L163.34 7.19ZM162.22 4.45L162.22 4.45L162.22 4.45Q162.22 4.15 162.38 3.94L162.38 3.94L162.38 3.94Q162.55 3.73 162.86 3.73L162.86 3.73L162.86 3.73Q163.17 3.73 163.34 3.94L163.34 3.94L163.34 3.94Q163.51 4.15 163.51 4.45L163.51 4.45L163.51 4.45Q163.51 4.75 163.34 4.95L163.34 4.95L163.34 4.95Q163.17 5.16 162.86 5.16L162.86 5.16L162.86 5.16Q162.55 5.16 162.38 4.95L162.38 4.95L162.38 4.95Q162.22 4.75 162.22 4.45ZM166.67 12.59L166.67 11.46L166.67 11.46Q166.67 9.40 167.60 8.21L167.60 8.21L167.60 8.21Q168.54 7.01 170.14 7.01L170.14 7.01L170.14 7.01Q171.76 7.01 172.69 8.19L172.69 8.19L172.69 8.19Q173.62 9.37 173.62 11.43L173.62 11.43L173.62 12.45L173.62 12.45Q173.62 14.54 172.69 15.71L172.69 15.71L172.69 15.71Q171.75 16.88 170.16 16.88L170.16 16.88L170.16 16.88Q168.57 16.88 167.64 15.73L167.64 15.73L167.64 15.73Q166.71 14.59 166.67 12.59L166.67 12.59ZM167.66 11.39L167.66 12.45L167.66 12.45Q167.66 14.09 168.32 15.03L168.32 15.03L168.32 15.03Q168.98 15.97 170.16 15.97L170.16 15.97L170.16 15.97Q171.37 15.97 172.00 15.06L172.00 15.06L172.00 15.06Q172.64 14.16 172.65 12.47L172.65 12.47L172.65 11.46L172.65 11.46Q172.65 9.82 171.98 8.87L171.98 8.87L171.98 8.87Q171.31 7.93 170.14 7.93L170.14 7.93L170.14 7.93Q169.01 7.93 168.34 8.85L168.34 8.85L168.34 8.85Q167.67 9.77 167.66 11.39L167.66 11.39ZM176.87 7.19L177.81 7.19L177.83 8.70L177.83 8.70Q178.25 7.93 178.91 7.47L178.91 7.47L178.91 7.47Q179.56 7.01 180.40 7.01L180.40 7.01L180.40 7.01Q182.89 7.01 182.95 10.33L182.95 10.33L182.95 16.70L181.98 16.70L181.98 10.43L181.98 10.43Q181.97 9.16 181.53 8.55L181.53 8.55L181.53 8.55Q181.09 7.95 180.15 7.95L180.15 7.95L180.15 7.95Q179.39 7.95 178.78 8.52L178.78 8.52L178.78 8.52Q178.17 9.10 177.85 10.10L177.85 10.10L177.85 16.70L176.87 16.70L176.87 7.19ZM191.29 14.36L191.29 14.36L191.29 14.36Q191.29 13.75 190.79 13.28L190.79 13.28L190.79 13.28Q190.28 12.82 189.06 12.27L189.06 12.27L189.06 12.27Q187.84 11.72 187.36 11.36L187.36 11.36L187.36 11.36Q186.87 11.00 186.65 10.56L186.65 10.56L186.65 10.56Q186.42 10.13 186.42 9.54L186.42 9.54L186.42 9.54Q186.42 8.45 187.21 7.73L187.21 7.73L187.21 7.73Q188.00 7.01 189.26 7.01L189.26 7.01L189.26 7.01Q190.61 7.01 191.42 7.78L191.42 7.78L191.42 7.78Q192.23 8.54 192.23 9.80L192.23 9.80L191.25 9.80L191.25 9.80Q191.25 8.99 190.70 8.46L190.70 8.46L190.70 8.46Q190.14 7.93 189.26 7.93L189.26 7.93L189.26 7.93Q188.39 7.93 187.89 8.37L187.89 8.37L187.89 8.37Q187.38 8.81 187.38 9.51L187.38 9.51L187.38 9.51Q187.38 10.08 187.77 10.44L187.77 10.44L187.77 10.44Q188.16 10.80 189.44 11.42L189.44 11.42L189.44 11.42Q190.77 12.00 191.27 12.38L191.27 12.38L191.27 12.38Q191.77 12.75 192.02 13.21L192.02 13.21L192.02 13.21Q192.28 13.68 192.28 14.31L192.28 14.31L192.28 14.31Q192.28 15.49 191.46 16.18L191.46 16.18L191.46 16.18Q190.64 16.88 189.31 16.88L189.31 16.88L189.31 16.88Q187.89 16.88 187.02 16.10L187.02 16.10L187.02 16.10Q186.14 15.33 186.14 14.11L186.14 14.11L187.13 14.11L187.13 14.11Q187.17 14.99 187.72 15.48L187.72 15.48L187.72 15.48Q188.27 15.97 189.31 15.97L189.31 15.97L189.31 15.97Q190.21 15.97 190.75 15.53L190.75 15.53L190.75 15.53Q191.29 15.09 191.29 14.36Z" transform="rotate(0 96.88499665260315 10.039999723434448)"></path><defs id="SvgjsDefs1780"></defs></svg></g></svg>