<svg version="1.1" viewBox="0.0 0.0 960.0 720.0" fill="none" stroke="none" stroke-linecap="square" stroke-miterlimit="10" xmlns:xlink="http://www.w3.org/1999/xlink" xmlns="http://www.w3.org/2000/svg"><clipPath id="p.0"><path d="m0 0l960.0 0l0 720.0l-960.0 0l0 -720.0z" clip-rule="nonzero"/></clipPath><g clip-path="url(#p.0)"><path fill="#000000" fill-opacity="0.0" d="m0 0l960.0 0l0 720.0l-960.0 0z" fill-rule="evenodd"/><path fill="#cfe2f3" d="m191.82677 196.05614l0 0c0 -28.00328 22.701157 -50.704437 50.704437 -50.704437l474.93762 0c13.447632 0 26.344482 5.3420715 35.853455 14.850983c9.508911 9.508926 14.850952 22.405792 14.850952 35.853455l0 202.81163c0 28.003265 -22.70111 50.704407 -50.704407 50.704407l-474.93762 0c-28.00328 0 -50.704437 -22.701141 -50.704437 -50.704407z" fill-rule="evenodd"/><path stroke="#000000" stroke-width="1.0" stroke-linejoin="round" stroke-linecap="butt" d="m191.82677 196.05614l0 0c0 -28.00328 22.701157 -50.704437 50.704437 -50.704437l474.93762 0c13.447632 0 26.344482 5.3420715 35.853455 14.850983c9.508911 9.508926 14.850952 22.405792 14.850952 35.853455l0 202.81163c0 28.003265 -22.70111 50.704407 -50.704407 50.704407l-474.93762 0c-28.00328 0 -50.704437 -22.701141 -50.704437 -50.704407z" fill-rule="evenodd"/><path fill="#000000" fill-opacity="0.0" d="m378.59055 145.35432l0 305.92126" fill-rule="evenodd"/><path stroke="#000000" stroke-width="1.0" stroke-linejoin="round" stroke-linecap="butt" d="m378.59055 145.35432l0 305.92126" fill-rule="evenodd"/><path fill="#000000" fill-opacity="0.0" d="m573.74805 145.35432l0 305.92126" fill-rule="evenodd"/><path stroke="#000000" stroke-width="1.0" stroke-linejoin="round" stroke-linecap="butt" d="m573.74805 145.35432l0 305.92126" fill-rule="evenodd"/><path fill="#000000" fill-opacity="0.0" d="m184.22572 549.2966l770.7087 0l0 89.921265l-770.7087 0z" fill-rule="evenodd"/></g></svg>